HIERARCHY
ROOT Hips
{
	OFFSET 0.000000 0.000000 0.000000
	CHANNELS 6 Xposition Yposition Zposition Xrotation Yrotation Zrotation
	JOINT LeftUpLeg_virtual
	{
		OFFSET 0.000000 0.000000 0.000000
		CHANNELS 3 Xrotation Yrotation Zrotation
		JOINT LeftUpLeg
		{
			OFFSET 15.427100 -6.655098 0.678600
			CHANNELS 3 Xrotation Yrotation Zrotation
			JOINT LeftLeg
			{
				OFFSET 4.081073 -39.591068 13.024000
				CHANNELS 3 Xrotation Yrotation Zrotation
				JOINT LeftFoot
				{
					OFFSET -4.081074 -37.707932 -15.979700
					CHANNELS 3 Xrotation Yrotation Zrotation
					JOINT LeftToeBase
					{
						OFFSET 5.346399 -15.068900 20.645000
						CHANNELS 3 Xrotation Yrotation Zrotation
						JOINT LeftToe_End
						{
							OFFSET 2.754700 0.931300 11.300900
							CHANNELS 3 Xrotation Yrotation Zrotation
							End Site
							{
								OFFSET 0 0 0
							}
						}
					}
				}
			}
		}
	}
	JOINT RightUpLeg_virtual
	{
		OFFSET 0.000000 0.000000 0.000000
		CHANNELS 3 Xrotation Yrotation Zrotation
		JOINT RightUpLeg
		{
			OFFSET -15.569500 -6.655098 0.678600
			CHANNELS 3 Xrotation Yrotation Zrotation
			JOINT RightLeg
			{
				OFFSET -4.081825 -39.591045 13.023800
				CHANNELS 3 Xrotation Yrotation Zrotation
				JOINT RightFoot
				{
					OFFSET 4.081824 -37.707954 -15.979600
					CHANNELS 3 Xrotation Yrotation Zrotation
					JOINT RightToeBase
					{
						OFFSET -5.346400 -15.068900 20.645000
						CHANNELS 3 Xrotation Yrotation Zrotation
						JOINT RightToe_End
						{
							OFFSET -2.754700 0.931300 11.300900
							CHANNELS 3 Xrotation Yrotation Zrotation
							End Site
							{
								OFFSET 0 0 0
							}
						}
					}
				}
			}
		}
	}
	JOINT Spine_virtual
	{
		OFFSET 0.000000 0.000000 0.000000
		CHANNELS 3 Xrotation Yrotation Zrotation
		JOINT Spine
		{
			OFFSET -0.279200 12.230698 -2.892100
			CHANNELS 3 Xrotation Yrotation Zrotation
			JOINT Spine1
			{
				OFFSET -0.232667 10.192268 -1.242267
				CHANNELS 3 Xrotation Yrotation Zrotation
				JOINT Spine1_split
				{
					OFFSET -0.232667 10.192268 -1.242267
					CHANNELS 3 Xrotation Yrotation Zrotation
					JOINT Spine2
					{
						OFFSET -0.232667 10.192268 -1.242267
						CHANNELS 3 Xrotation Yrotation Zrotation
						JOINT Neck_virtual
						{
							OFFSET 0.000000 0.000000 0.000000
							CHANNELS 3 Xrotation Yrotation Zrotation
							JOINT Neck
							{
								OFFSET -0.418800 17.814194 8.416900
								CHANNELS 3 Xrotation Yrotation Zrotation
								JOINT Head
								{
									OFFSET 0.000000 7.031097 3.806800
									CHANNELS 3 Xrotation Yrotation Zrotation
									JOINT HeadTop_End
									{
										OFFSET 0.000000 24.646606 12.978600
										CHANNELS 3 Xrotation Yrotation Zrotation
										End Site
										{
											OFFSET 0 0 0
										}
									}
								}
							}
						}
						JOINT LeftShoulder_virtual
						{
							OFFSET 0.000000 0.000000 0.000000
							CHANNELS 3 Xrotation Yrotation Zrotation
							JOINT LeftShoulder
							{
								OFFSET 8.476499 7.247704 -3.868750
								CHANNELS 3 Xrotation Yrotation Zrotation
								JOINT LeftShoulder_split
								{
									OFFSET 8.476499 7.247704 -3.868750
									CHANNELS 3 Xrotation Yrotation Zrotation
									JOINT LeftArm
									{
										OFFSET 9.308998 -2.777710 0.208600
										CHANNELS 3 Xrotation Yrotation Zrotation
										JOINT LeftForeArm
										{
											OFFSET 29.972298 0.000000 0.000000
											CHANNELS 3 Xrotation Yrotation Zrotation
											JOINT LeftHand
											{
												OFFSET 26.026505 0.000000 0.000000
												CHANNELS 3 Xrotation Yrotation Zrotation
												End Site
												{
													OFFSET 0 0 0
												}
											}
										}
									}
								}
							}
						}
						JOINT RightShoulder_virtual
						{
							OFFSET 0.000000 0.000000 0.000000
							CHANNELS 3 Xrotation Yrotation Zrotation
							JOINT RightShoulder
							{
								OFFSET -7.570500 7.247704 -3.868750
								CHANNELS 3 Xrotation Yrotation Zrotation
								JOINT RightShoulder_split
								{
									OFFSET -7.570500 7.247704 -3.868750
									CHANNELS 3 Xrotation Yrotation Zrotation
									JOINT RightArm
									{
										OFFSET -9.308998 -2.777710 0.208500
										CHANNELS 3 Xrotation Yrotation Zrotation
										JOINT RightForeArm
										{
											OFFSET -29.972300 0.000000 0.000000
											CHANNELS 3 Xrotation Yrotation Zrotation
											JOINT RightHand
											{
												OFFSET -26.026505 0.000000 0.000000
												CHANNELS 3 Xrotation Yrotation Zrotation
												End Site
												{
													OFFSET 0 0 0
												}
											}
										}
									}
								}
							}
						}
					}
				}
			}
		}
	}
}
MOTION
Frames: 4
Frame Time: 0.03333333
-13.904409 70.471748 -8.811638 0.000000 0.000000 0.000000 -0.845559 -31.175306 7.477002 -25.179841 2.989561 27.553504 42.610723 -13.215338 3.466899 -12.677010 -2.936596 -29.482109 -1.227388 -2.210480 -0.745433 0.000000 0.000000 0.000000 -0.486107 -30.522114 7.759723 -29.611869 -6.598815 -40.164535 57.651537 17.600103 -9.236595 -13.769251 -29.521129 47.008842 5.612585 10.904399 -16.897652 0.000000 0.000000 0.000000 -1.587545 -23.846374 6.153482 4.278392 5.395347 -4.027968 1.146142 -1.423622 -2.117508 0.159067 -0.742360 0.119887 0.000000 0.000000 0.000000 6.536013 0.830134 0.151362 8.280726 18.630657 -2.498009 -18.000233 5.226810 -24.095120 0.000000 0.000000 0.000000 3.433456 -0.801392 -1.563496 2.303073 8.718885 -5.481584 4.731113 -10.170197 3.333740 -77.651471 0.382174 -44.473950 135.755447 -76.087775 132.891535 0.000000 0.000000 0.000000 2.951258 -2.350515 -0.508369 -4.588049 6.344783 -11.636802 -7.846881 -5.238030 0.424944 -57.424508 21.218473 87.096824 -62.848942 74.330859 63.777622 0.000000 0.000000 0.000000 
-15.493495 71.176857 -9.308826 0.000000 0.000000 0.000000 -1.154825 -32.216636 7.502764 -24.247808 1.620001 27.715400 42.079279 -12.609537 3.598612 -9.323371 -2.879249 -29.860125 -3.305595 -2.301031 -2.092496 0.000000 0.000000 0.000000 -1.024833 -30.866585 7.787470 -29.183090 -8.218239 -40.495659 57.570203 16.723985 -8.545601 -16.579027 -30.151126 43.934270 7.985354 10.847811 -16.967966 0.000000 0.000000 0.000000 -2.048306 -24.222262 6.310055 4.187290 4.981229 -3.894370 1.071654 -1.590389 -2.085801 0.150180 -0.668310 0.114338 0.000000 0.000000 0.000000 6.607275 0.633136 0.117066 7.699128 18.513631 -2.780414 -16.604869 6.239708 -24.739749 0.000000 0.000000 0.000000 3.343720 -1.003107 -1.539156 2.281913 8.411888 -5.377309 5.061580 -9.984155 3.369969 -77.259254 0.893973 -44.556176 136.515483 -75.853595 133.227402 0.000000 0.000000 0.000000 2.865182 -2.539977 -0.460843 -4.616171 5.468643 -12.655284 -8.275626 -4.992875 0.665226 -57.172276 20.512812 87.028604 -70.043802 74.742712 70.828235 0.000000 0.000000 0.000000 
-17.024319 72.448166 -9.790581 0.000000 0.000000 0.000000 -1.233933 -32.824755 7.428359 -23.863230 0.448296 27.430031 41.567746 -11.949928 3.854931 -5.665852 -3.310094 -29.950267 -7.018310 -2.304059 -3.407326 0.000000 0.000000 0.000000 -1.521336 -31.014195 7.655459 -28.547524 -10.225252 -40.433463 56.397091 16.081959 -7.522905 -18.537695 -29.817259 40.597159 9.395496 10.905686 -16.559732 0.000000 0.000000 0.000000 -2.101266 -24.306239 6.400849 4.047901 4.698804 -3.609592 1.001605 -1.774879 -2.062457 0.124387 -0.563906 0.104609 0.000000 0.000000 0.000000 6.591203 0.471877 0.076244 6.840390 18.292432 -2.750496 -15.087425 7.228702 -25.491296 0.000000 0.000000 0.000000 3.202190 -1.178425 -1.560492 2.268798 7.631737 -5.418135 5.525514 -9.797898 3.405218 -75.564924 1.488397 -45.031840 136.867074 -75.799377 133.111057 0.000000 0.000000 0.000000 2.663091 -2.660593 -0.383810 -4.720094 4.668516 -13.315500 -8.246260 -4.935342 0.748164 -56.798241 19.243348 87.343517 -79.423550 75.176641 80.114902 0.000000 0.000000 0.000000 
-18.418118 73.961334 -10.262203 0.000000 0.000000 0.000000 -1.206743 -33.036474 7.263914 -24.348941 -0.032010 26.692282 41.294784 -11.470337 4.088585 -2.765740 -4.237292 -29.739771 -11.424881 -2.236508 -4.369657 0.000000 0.000000 0.000000 -1.850593 -31.270218 7.377795 -27.857627 -12.009942 -40.081845 54.525608 15.950268 -6.625450 -18.772775 -28.375587 38.704117 8.611446 11.189128 -15.831981 0.000000 0.000000 0.000000 -1.849302 -24.346040 6.429566 3.972191 4.631200 -3.211417 0.959762 -1.885561 -2.068869 0.109339 -0.443573 0.106201 0.000000 0.000000 0.000000 6.512039 0.417542 0.002667 5.836713 17.984484 -2.458924 -13.764461 8.088076 -26.218482 0.000000 0.000000 0.000000 3.009630 -1.263981 -1.667131 2.253730 6.567751 -5.718056 6.023423 -9.673701 3.471982 -72.540215 2.039594 -45.887769 136.704228 -75.806029 132.489182 0.000000 0.000000 0.000000 2.388752 -2.652347 -0.309520 -4.890855 3.954632 -13.432977 -7.762689 -5.214276 0.579095 -55.873075 18.177502 87.799958 -90.333534 75.467464 91.034701 0.000000 0.000000 0.000000 
